<svg xmlns="http://www.w3.org/2000/svg" version="1.1" xmlns:xlink="http://www.w3.org/1999/xlink" xmlns:svgjs="http://svgjs.com/svgjs" width="1457" height="560" preserveAspectRatio="none" viewBox="0 0 1457 560"><g mask="url(&quot;#SvgjsMask2245&quot;)" fill="none"><rect width="1457" height="560" x="0" y="0" fill="#0e2a47"></rect><path d="M2.19 -5.14L67.14 32.36L67.14 107.36L2.19 144.86L-62.76 107.36L-62.76 32.36zM67.14 107.36L132.1 144.86L132.1 219.86L67.14 257.36L2.19 219.86L2.19 144.86zM2.19 444.86L67.14 482.36L67.14 557.36L2.19 594.86L-62.76 557.36L-62.76 482.36zM67.14 557.36L132.1 594.86L132.1 669.86L67.14 707.36L2.19 669.86L2.19 594.86zM132.1 -5.14L197.05 32.36L197.05 107.36L132.1 144.86L67.14 107.36L67.14 32.36zM197.05 332.36L262 369.86L262 444.86L197.05 482.36L132.1 444.86L132.1 369.86zM132.1 444.86L197.05 482.36L197.05 557.36L132.1 594.86L67.14 557.36L67.14 482.36zM197.05 557.36L262 594.86L262 669.86L197.05 707.36L132.1 669.86L132.1 594.86zM262 -5.14L326.96 32.36L326.96 107.36L262 144.86L197.05 107.36L197.05 32.36zM326.96 107.36L391.91 144.86L391.91 219.86L326.96 257.36L262 219.86L262 144.86zM262 444.86L326.96 482.36L326.96 557.36L262 594.86L197.05 557.36L197.05 482.36zM391.91 -5.14L456.87 32.36L456.87 107.36L391.91 144.86L326.96 107.36L326.96 32.36zM391.91 444.86L456.87 482.36L456.87 557.36L391.91 594.86L326.96 557.36L326.96 482.36zM456.87 557.36L521.82 594.86L521.82 669.86L456.87 707.36L391.91 669.86L391.91 594.86zM586.77 557.36L651.73 594.86L651.73 669.86L586.77 707.36L521.82 669.86L521.82 594.86zM651.73 -5.14L716.68 32.36L716.68 107.36L651.73 144.86L586.77 107.36L586.77 32.36zM716.68 332.36L781.64 369.86L781.64 444.86L716.68 482.36L651.73 444.86L651.73 369.86zM651.73 444.86L716.68 482.36L716.68 557.36L651.73 594.86L586.77 557.36L586.77 482.36zM716.68 557.36L781.64 594.86L781.64 669.86L716.68 707.36L651.73 669.86L651.73 594.86zM781.63 -5.14L846.59 32.36L846.59 107.36L781.63 144.86L716.68 107.36L716.68 32.36zM846.59 107.36L911.54 144.86L911.54 219.86L846.59 257.36L781.63 219.86L781.63 144.86zM846.59 332.36L911.54 369.86L911.54 444.86L846.59 482.36L781.63 444.86L781.63 369.86zM976.5 332.36L1041.45 369.86L1041.45 444.86L976.5 482.36L911.54 444.86L911.54 369.86zM911.54 444.86L976.5 482.36L976.5 557.36L911.54 594.86L846.59 557.36L846.59 482.36zM1041.45 444.86L1106.4 482.36L1106.4 557.36L1041.45 594.86L976.5 557.36L976.5 482.36zM1171.36 -5.14L1236.31 32.36L1236.31 107.36L1171.36 144.86L1106.4 107.36L1106.4 32.36zM1236.31 107.36L1301.26 144.86L1301.26 219.86L1236.31 257.36L1171.36 219.86L1171.36 144.86zM1171.36 219.86L1236.31 257.36L1236.31 332.36L1171.36 369.86L1106.4 332.36L1106.4 257.36zM1171.36 444.86L1236.31 482.36L1236.31 557.36L1171.36 594.86L1106.4 557.36L1106.4 482.36zM1301.27 219.86L1366.22 257.36L1366.22 332.36L1301.27 369.86L1236.31 332.36L1236.31 257.36zM1301.27 444.86L1366.22 482.36L1366.22 557.36L1301.27 594.86L1236.31 557.36L1236.31 482.36zM1431.17 -5.14L1496.13 32.36L1496.13 107.36L1431.17 144.86L1366.22 107.36L1366.22 32.36zM1431.17 444.86L1496.13 482.36L1496.13 557.36L1431.17 594.86L1366.22 557.36L1366.22 482.36z" stroke="#03305d" stroke-width="2"></path><path d="M-5.31 -5.14 a7.5 7.5 0 1 0 15 0 a7.5 7.5 0 1 0 -15 0zM59.64 32.36 a7.5 7.5 0 1 0 15 0 a7.5 7.5 0 1 0 -15 0zM59.64 107.36 a7.5 7.5 0 1 0 15 0 a7.5 7.5 0 1 0 -15 0zM-5.31 144.86 a7.5 7.5 0 1 0 15 0 a7.5 7.5 0 1 0 -15 0zM-70.26 107.36 a7.5 7.5 0 1 0 15 0 a7.5 7.5 0 1 0 -15 0zM-70.26 32.36 a7.5 7.5 0 1 0 15 0 a7.5 7.5 0 1 0 -15 0zM124.6 144.86 a7.5 7.5 0 1 0 15 0 a7.5 7.5 0 1 0 -15 0zM124.6 219.86 a7.5 7.5 0 1 0 15 0 a7.5 7.5 0 1 0 -15 0zM59.64 257.36 a7.5 7.5 0 1 0 15 0 a7.5 7.5 0 1 0 -15 0zM-5.31 219.86 a7.5 7.5 0 1 0 15 0 a7.5 7.5 0 1 0 -15 0zM-5.31 444.86 a7.5 7.5 0 1 0 15 0 a7.5 7.5 0 1 0 -15 0zM59.64 482.36 a7.5 7.5 0 1 0 15 0 a7.5 7.5 0 1 0 -15 0zM59.64 557.36 a7.5 7.5 0 1 0 15 0 a7.5 7.5 0 1 0 -15 0zM-5.31 594.86 a7.5 7.5 0 1 0 15 0 a7.5 7.5 0 1 0 -15 0zM-70.26 557.36 a7.5 7.5 0 1 0 15 0 a7.5 7.5 0 1 0 -15 0zM-70.26 482.36 a7.5 7.5 0 1 0 15 0 a7.5 7.5 0 1 0 -15 0zM124.6 594.86 a7.5 7.5 0 1 0 15 0 a7.5 7.5 0 1 0 -15 0zM124.6 669.86 a7.5 7.5 0 1 0 15 0 a7.5 7.5 0 1 0 -15 0zM59.64 707.36 a7.5 7.5 0 1 0 15 0 a7.5 7.5 0 1 0 -15 0zM-5.31 669.86 a7.5 7.5 0 1 0 15 0 a7.5 7.5 0 1 0 -15 0zM124.6 -5.14 a7.5 7.5 0 1 0 15 0 a7.5 7.5 0 1 0 -15 0zM189.55 32.36 a7.5 7.5 0 1 0 15 0 a7.5 7.5 0 1 0 -15 0zM189.55 107.36 a7.5 7.5 0 1 0 15 0 a7.5 7.5 0 1 0 -15 0zM189.55 332.36 a7.5 7.5 0 1 0 15 0 a7.5 7.5 0 1 0 -15 0zM254.5 369.86 a7.5 7.5 0 1 0 15 0 a7.5 7.5 0 1 0 -15 0zM254.5 444.86 a7.5 7.5 0 1 0 15 0 a7.5 7.5 0 1 0 -15 0zM189.55 482.36 a7.5 7.5 0 1 0 15 0 a7.5 7.5 0 1 0 -15 0zM124.6 444.86 a7.5 7.5 0 1 0 15 0 a7.5 7.5 0 1 0 -15 0zM124.6 369.86 a7.5 7.5 0 1 0 15 0 a7.5 7.5 0 1 0 -15 0zM189.55 557.36 a7.5 7.5 0 1 0 15 0 a7.5 7.5 0 1 0 -15 0zM254.5 594.86 a7.5 7.5 0 1 0 15 0 a7.5 7.5 0 1 0 -15 0zM254.5 669.86 a7.5 7.5 0 1 0 15 0 a7.5 7.5 0 1 0 -15 0zM189.55 707.36 a7.5 7.5 0 1 0 15 0 a7.5 7.5 0 1 0 -15 0zM254.5 -5.14 a7.5 7.5 0 1 0 15 0 a7.5 7.5 0 1 0 -15 0zM319.46 32.36 a7.5 7.5 0 1 0 15 0 a7.5 7.5 0 1 0 -15 0zM319.46 107.36 a7.5 7.5 0 1 0 15 0 a7.5 7.5 0 1 0 -15 0zM254.5 144.86 a7.5 7.5 0 1 0 15 0 a7.5 7.5 0 1 0 -15 0zM384.41 144.86 a7.5 7.5 0 1 0 15 0 a7.5 7.5 0 1 0 -15 0zM384.41 219.86 a7.5 7.5 0 1 0 15 0 a7.5 7.5 0 1 0 -15 0zM319.46 257.36 a7.5 7.5 0 1 0 15 0 a7.5 7.5 0 1 0 -15 0zM254.5 219.86 a7.5 7.5 0 1 0 15 0 a7.5 7.5 0 1 0 -15 0zM319.46 482.36 a7.5 7.5 0 1 0 15 0 a7.5 7.5 0 1 0 -15 0zM319.46 557.36 a7.5 7.5 0 1 0 15 0 a7.5 7.5 0 1 0 -15 0zM384.41 -5.14 a7.5 7.5 0 1 0 15 0 a7.5 7.5 0 1 0 -15 0zM449.37 32.36 a7.5 7.5 0 1 0 15 0 a7.5 7.5 0 1 0 -15 0zM449.37 107.36 a7.5 7.5 0 1 0 15 0 a7.5 7.5 0 1 0 -15 0zM384.41 444.86 a7.5 7.5 0 1 0 15 0 a7.5 7.5 0 1 0 -15 0zM449.37 482.36 a7.5 7.5 0 1 0 15 0 a7.5 7.5 0 1 0 -15 0zM449.37 557.36 a7.5 7.5 0 1 0 15 0 a7.5 7.5 0 1 0 -15 0zM384.41 594.86 a7.5 7.5 0 1 0 15 0 a7.5 7.5 0 1 0 -15 0zM514.32 594.86 a7.5 7.5 0 1 0 15 0 a7.5 7.5 0 1 0 -15 0zM514.32 669.86 a7.5 7.5 0 1 0 15 0 a7.5 7.5 0 1 0 -15 0zM449.37 707.36 a7.5 7.5 0 1 0 15 0 a7.5 7.5 0 1 0 -15 0zM384.41 669.86 a7.5 7.5 0 1 0 15 0 a7.5 7.5 0 1 0 -15 0zM579.27 557.36 a7.5 7.5 0 1 0 15 0 a7.5 7.5 0 1 0 -15 0zM644.23 594.86 a7.5 7.5 0 1 0 15 0 a7.5 7.5 0 1 0 -15 0zM644.23 669.86 a7.5 7.5 0 1 0 15 0 a7.5 7.5 0 1 0 -15 0zM579.27 707.36 a7.5 7.5 0 1 0 15 0 a7.5 7.5 0 1 0 -15 0zM644.23 -5.14 a7.5 7.5 0 1 0 15 0 a7.5 7.5 0 1 0 -15 0zM709.18 32.36 a7.5 7.5 0 1 0 15 0 a7.5 7.5 0 1 0 -15 0zM709.18 107.36 a7.5 7.5 0 1 0 15 0 a7.5 7.5 0 1 0 -15 0zM644.23 144.86 a7.5 7.5 0 1 0 15 0 a7.5 7.5 0 1 0 -15 0zM579.27 107.36 a7.5 7.5 0 1 0 15 0 a7.5 7.5 0 1 0 -15 0zM579.27 32.36 a7.5 7.5 0 1 0 15 0 a7.5 7.5 0 1 0 -15 0zM709.18 332.36 a7.5 7.5 0 1 0 15 0 a7.5 7.5 0 1 0 -15 0zM774.14 369.86 a7.5 7.5 0 1 0 15 0 a7.5 7.5 0 1 0 -15 0zM774.14 444.86 a7.5 7.5 0 1 0 15 0 a7.5 7.5 0 1 0 -15 0zM709.18 482.36 a7.5 7.5 0 1 0 15 0 a7.5 7.5 0 1 0 -15 0zM644.23 444.86 a7.5 7.5 0 1 0 15 0 a7.5 7.5 0 1 0 -15 0zM644.23 369.86 a7.5 7.5 0 1 0 15 0 a7.5 7.5 0 1 0 -15 0zM709.18 557.36 a7.5 7.5 0 1 0 15 0 a7.5 7.5 0 1 0 -15 0zM579.27 482.36 a7.5 7.5 0 1 0 15 0 a7.5 7.5 0 1 0 -15 0zM774.14 594.86 a7.5 7.5 0 1 0 15 0 a7.5 7.5 0 1 0 -15 0zM774.14 669.86 a7.5 7.5 0 1 0 15 0 a7.5 7.5 0 1 0 -15 0zM709.18 707.36 a7.5 7.5 0 1 0 15 0 a7.5 7.5 0 1 0 -15 0zM774.13 -5.14 a7.5 7.5 0 1 0 15 0 a7.5 7.5 0 1 0 -15 0zM839.09 32.36 a7.5 7.5 0 1 0 15 0 a7.5 7.5 0 1 0 -15 0zM839.09 107.36 a7.5 7.5 0 1 0 15 0 a7.5 7.5 0 1 0 -15 0zM774.13 144.86 a7.5 7.5 0 1 0 15 0 a7.5 7.5 0 1 0 -15 0zM904.04 144.86 a7.5 7.5 0 1 0 15 0 a7.5 7.5 0 1 0 -15 0zM904.04 219.86 a7.5 7.5 0 1 0 15 0 a7.5 7.5 0 1 0 -15 0zM839.09 257.36 a7.5 7.5 0 1 0 15 0 a7.5 7.5 0 1 0 -15 0zM774.13 219.86 a7.5 7.5 0 1 0 15 0 a7.5 7.5 0 1 0 -15 0zM839.09 332.36 a7.5 7.5 0 1 0 15 0 a7.5 7.5 0 1 0 -15 0zM904.04 369.86 a7.5 7.5 0 1 0 15 0 a7.5 7.5 0 1 0 -15 0zM904.04 444.86 a7.5 7.5 0 1 0 15 0 a7.5 7.5 0 1 0 -15 0zM839.09 482.36 a7.5 7.5 0 1 0 15 0 a7.5 7.5 0 1 0 -15 0zM774.13 444.86 a7.5 7.5 0 1 0 15 0 a7.5 7.5 0 1 0 -15 0zM774.13 369.86 a7.5 7.5 0 1 0 15 0 a7.5 7.5 0 1 0 -15 0zM969 332.36 a7.5 7.5 0 1 0 15 0 a7.5 7.5 0 1 0 -15 0zM1033.95 369.86 a7.5 7.5 0 1 0 15 0 a7.5 7.5 0 1 0 -15 0zM1033.95 444.86 a7.5 7.5 0 1 0 15 0 a7.5 7.5 0 1 0 -15 0zM969 482.36 a7.5 7.5 0 1 0 15 0 a7.5 7.5 0 1 0 -15 0zM969 557.36 a7.5 7.5 0 1 0 15 0 a7.5 7.5 0 1 0 -15 0zM904.04 594.86 a7.5 7.5 0 1 0 15 0 a7.5 7.5 0 1 0 -15 0zM839.09 557.36 a7.5 7.5 0 1 0 15 0 a7.5 7.5 0 1 0 -15 0zM1098.9 482.36 a7.5 7.5 0 1 0 15 0 a7.5 7.5 0 1 0 -15 0zM1098.9 557.36 a7.5 7.5 0 1 0 15 0 a7.5 7.5 0 1 0 -15 0zM1033.95 594.86 a7.5 7.5 0 1 0 15 0 a7.5 7.5 0 1 0 -15 0zM1163.86 -5.14 a7.5 7.5 0 1 0 15 0 a7.5 7.5 0 1 0 -15 0zM1228.81 32.36 a7.5 7.5 0 1 0 15 0 a7.5 7.5 0 1 0 -15 0zM1228.81 107.36 a7.5 7.5 0 1 0 15 0 a7.5 7.5 0 1 0 -15 0zM1163.86 144.86 a7.5 7.5 0 1 0 15 0 a7.5 7.5 0 1 0 -15 0zM1098.9 107.36 a7.5 7.5 0 1 0 15 0 a7.5 7.5 0 1 0 -15 0zM1098.9 32.36 a7.5 7.5 0 1 0 15 0 a7.5 7.5 0 1 0 -15 0zM1293.76 144.86 a7.5 7.5 0 1 0 15 0 a7.5 7.5 0 1 0 -15 0zM1293.76 219.86 a7.5 7.5 0 1 0 15 0 a7.5 7.5 0 1 0 -15 0zM1228.81 257.36 a7.5 7.5 0 1 0 15 0 a7.5 7.5 0 1 0 -15 0zM1163.86 219.86 a7.5 7.5 0 1 0 15 0 a7.5 7.5 0 1 0 -15 0zM1228.81 332.36 a7.5 7.5 0 1 0 15 0 a7.5 7.5 0 1 0 -15 0zM1163.86 369.86 a7.5 7.5 0 1 0 15 0 a7.5 7.5 0 1 0 -15 0zM1098.9 332.36 a7.5 7.5 0 1 0 15 0 a7.5 7.5 0 1 0 -15 0zM1098.9 257.36 a7.5 7.5 0 1 0 15 0 a7.5 7.5 0 1 0 -15 0zM1163.86 444.86 a7.5 7.5 0 1 0 15 0 a7.5 7.5 0 1 0 -15 0zM1228.81 482.36 a7.5 7.5 0 1 0 15 0 a7.5 7.5 0 1 0 -15 0zM1228.81 557.36 a7.5 7.5 0 1 0 15 0 a7.5 7.5 0 1 0 -15 0zM1163.86 594.86 a7.5 7.5 0 1 0 15 0 a7.5 7.5 0 1 0 -15 0zM1293.77 219.86 a7.5 7.5 0 1 0 15 0 a7.5 7.5 0 1 0 -15 0zM1358.72 257.36 a7.5 7.5 0 1 0 15 0 a7.5 7.5 0 1 0 -15 0zM1358.72 332.36 a7.5 7.5 0 1 0 15 0 a7.5 7.5 0 1 0 -15 0zM1293.77 369.86 a7.5 7.5 0 1 0 15 0 a7.5 7.5 0 1 0 -15 0zM1293.77 444.86 a7.5 7.5 0 1 0 15 0 a7.5 7.5 0 1 0 -15 0zM1358.72 482.36 a7.5 7.5 0 1 0 15 0 a7.5 7.5 0 1 0 -15 0zM1358.72 557.36 a7.5 7.5 0 1 0 15 0 a7.5 7.5 0 1 0 -15 0zM1293.77 594.86 a7.5 7.5 0 1 0 15 0 a7.5 7.5 0 1 0 -15 0zM1423.67 -5.14 a7.5 7.5 0 1 0 15 0 a7.5 7.5 0 1 0 -15 0zM1488.63 32.36 a7.5 7.5 0 1 0 15 0 a7.5 7.5 0 1 0 -15 0zM1488.63 107.36 a7.5 7.5 0 1 0 15 0 a7.5 7.5 0 1 0 -15 0zM1423.67 144.86 a7.5 7.5 0 1 0 15 0 a7.5 7.5 0 1 0 -15 0zM1358.72 107.36 a7.5 7.5 0 1 0 15 0 a7.5 7.5 0 1 0 -15 0zM1358.72 32.36 a7.5 7.5 0 1 0 15 0 a7.5 7.5 0 1 0 -15 0zM1423.67 444.86 a7.5 7.5 0 1 0 15 0 a7.5 7.5 0 1 0 -15 0zM1488.63 482.36 a7.5 7.5 0 1 0 15 0 a7.5 7.5 0 1 0 -15 0zM1488.63 557.36 a7.5 7.5 0 1 0 15 0 a7.5 7.5 0 1 0 -15 0zM1423.67 594.86 a7.5 7.5 0 1 0 15 0 a7.5 7.5 0 1 0 -15 0z" fill="#03305d"></path><path d="M184.67 280.31L229.7 306.31L229.7 358.31L184.67 384.31L139.63 358.31L139.63 306.31zM364.81 -31.69L409.84 -5.69L409.84 46.31L364.81 72.31L319.77 46.31L319.77 -5.69zM409.84 46.31L454.88 72.31L454.88 124.31L409.84 150.31L364.81 124.31L364.81 72.31zM364.81 280.31L409.84 306.31L409.84 358.31L364.81 384.31L319.77 358.31L319.77 306.31zM409.84 514.31L454.88 540.31L454.88 592.31L409.84 618.31L364.81 592.31L364.81 540.31zM499.91 202.31L544.95 228.31L544.95 280.31L499.91 306.31L454.88 280.31L454.88 228.31zM454.88 280.31L499.91 306.31L499.91 358.31L454.88 384.31L409.84 358.31L409.84 306.31zM589.98 202.31L635.01 228.31L635.01 280.31L589.98 306.31L544.95 280.31L544.95 228.31zM770.12 46.31L815.15 72.31L815.15 124.31L770.12 150.31L725.08 124.31L725.08 72.31zM725.08 436.31L770.12 462.31L770.12 514.31L725.08 540.31L680.05 514.31L680.05 462.31zM950.26 358.31L995.29 384.31L995.29 436.31L950.26 462.31L905.22 436.31L905.22 384.31zM1040.33 46.31L1085.36 72.31L1085.36 124.31L1040.33 150.31L995.29 124.31L995.29 72.31zM1040.33 202.31L1085.36 228.31L1085.36 280.31L1040.33 306.31L995.29 280.31L995.29 228.31zM1130.39 46.31L1175.43 72.31L1175.43 124.31L1130.39 150.31L1085.36 124.31L1085.36 72.31zM1085.36 124.31L1130.39 150.31L1130.39 202.31L1085.36 228.31L1040.33 202.31L1040.33 150.31zM1130.39 358.31L1175.43 384.31L1175.43 436.31L1130.39 462.31L1085.36 436.31L1085.36 384.31zM1085.36 436.31L1130.39 462.31L1130.39 514.31L1085.36 540.31L1040.33 514.31L1040.33 462.31zM1175.43 280.31L1220.46 306.31L1220.46 358.31L1175.43 384.31L1130.39 358.31L1130.39 306.31zM1220.46 358.31L1265.5 384.31L1265.5 436.31L1220.46 462.31L1175.43 436.31L1175.43 384.31zM1310.53 46.31L1355.57 72.31L1355.57 124.31L1310.53 150.31L1265.5 124.31L1265.5 72.31zM1310.53 202.31L1355.57 228.31L1355.57 280.31L1310.53 306.31L1265.5 280.31L1265.5 228.31zM1355.57 -31.69L1400.6 -5.69L1400.6 46.31L1355.57 72.31L1310.53 46.31L1310.53 -5.69zM1445.64 -31.69L1490.67 -5.69L1490.67 46.31L1445.64 72.31L1400.6 46.31L1400.6 -5.69zM1490.67 202.31L1535.71 228.31L1535.71 280.31L1490.67 306.31L1445.64 280.31L1445.64 228.31z" stroke="url(#SvgjsLinearGradient2246)" stroke-width="2"></path></g><defs><mask id="SvgjsMask2245"><rect width="1457" height="560" fill="#ffffff"></rect></mask><linearGradient x1="224.2323" y1="-224.224" x2="1232.7676999999999" y2="784.2239999999999" gradientUnits="userSpaceOnUse" id="SvgjsLinearGradient2246"><stop stop-color="#0e2a47" offset="0"></stop><stop stop-color="rgba(107, 140, 183, 1)" offset="1"></stop></linearGradient></defs></svg>